<?xml version="1.0" encoding="UTF-8" standalone="no"?>
<svg xmlns="http://www.w3.org/2000/svg" version="1.1"
 width="4" height="4" id="libfive">
<path d="M 3.02959 0.342091 L 3.06576 0.305918 L 2.9842 0.25883 L 2.95295 0.241535 L 2.90653 0.216902 L 2.8603 0.194411 L 2.82906 0.179839 L 2.78148 0.158683 L 2.59756 0.0842847 L 2.72539 0.212113 L 2.75664 0.243363 L 2.78789 0.274613 L 2.81914 0.305863 L 2.85039 0.337113 L 2.88164 0.368363 L 2.94248 0.429204 L 2.90459 0.46709 L 2.87334 0.498341 L 2.84209 0.529591 L 2.81084 0.560841 L 2.77959 0.592091 L 2.74834 0.623341 L 2.71709 0.654591 L 2.68584 0.685841 L 2.65459 0.717091 L 2.62334 0.748341 L 2.59209 0.779591 L 2.56084 0.810841 L 2.52959 0.842091 L 2.49834 0.873341 L 2.46709 0.904591 L 2.43584 0.935841 L 2.40459 0.967091 L 2.37334 0.998341 L 2.31416 1.05752 L 2.34707 1.09043 L 2.37832 1.12168 L 2.40957 1.15293 L 2.44082 1.18418 L 2.47207 1.21543 L 2.50332 1.24668 L 2.53457 1.27793 L 2.56582 1.30918 L 2.59707 1.34043 L 2.62832 1.37168 L 2.65957 1.40293 L 2.69082 1.43418 L 2.72207 1.46543 L 2.75332 1.49668 L 2.78457 1.52793 L 2.81582 1.55918 L 2.84707 1.59043 L 2.87832 1.62168 L 2.90957 1.65293 L 2.94248 1.68584 L 3.00166 1.62666 L 3.03291 1.59541 L 3.06416 1.56416 L 3.09541 1.53291 L 3.12666 1.50166 L 3.15791 1.47041 L 3.18916 1.43916 L 3.22041 1.40791 L 3.25166 1.37666 L 3.28291 1.34541 L 3.31416 1.31416 L 3.34541 1.28291 L 3.37666 1.25166 L 3.40791 1.22041 L 3.43916 1.18916 L 3.47041 1.15791 L 3.50166 1.12666 L 3.53291 1.09541 L 3.5708 1.05752 L 3.63164 1.11836 L 3.66289 1.14961 L 3.69414 1.18086 L 3.72539 1.21211 L 3.75664 1.24336 L 3.78789 1.27461 L 3.91572 1.40244 L 3.84132 1.21852 L 3.82016 1.17094 L 3.80559 1.1397 L 3.7831 1.09347 L 3.75847 1.04705 L 3.74117 1.0158 L 3.69408 0.934236 L 3.65791 0.970409 L 3.62666 1.00166 L 3.5708 1.05752 L 3.53789 1.02461 L 3.50664 0.993363 L 3.47539 0.962113 L 3.44414 0.930863 L 3.41289 0.899613 L 3.38164 0.868363 L 3.35039 0.837113 L 3.31914 0.805863 L 3.28789 0.774613 L 3.25664 0.743363 L 3.22539 0.712113 L 3.19414 0.680863 L 3.16289 0.649613 L 3.13164 0.618363 L 3.10039 0.587113 L 3.06914 0.555863 L 3.03789 0.524613 L 3.00664 0.493363 L 2.97539 0.462113 L 2.94248 0.429204 L 2.99834 0.373341 Z"
fill="none" stroke="black" stroke-width="0.01"/><path d="M 2.69174 0.123429 L 2.60492 0.09165 L 2.66289 0.149613 L 2.60422 0.0909415 Z"
fill="none" stroke="black" stroke-width="0.01"/><path d="M 2.25332 0.996682 L 2.22207 0.965432 L 2.19082 0.934181 L 2.15957 0.902931 L 2.12832 0.871682 L 2.06582 0.809182 L 2.00332 0.746682 L 1.97207 0.715432 L 1.94082 0.684182 L 1.90957 0.652932 L 1.87832 0.621682 L 1.84707 0.590432 L 1.81582 0.559182 L 1.78457 0.527932 L 1.75332 0.496681 L 1.72207 0.465432 L 1.68584 0.429203 L 1.74502 0.370023 L 1.77627 0.338772 L 1.80752 0.307523 L 1.83877 0.276272 L 1.87002 0.245023 L 1.90127 0.213773 L 1.93252 0.182523 L 1.96377 0.151273 L 1.99502 0.120023 L 2.02627 0.0887725 L 2.11497 7.35521e-05 "
fill="none" stroke="black" stroke-width="0.01"/><path d="M 2.94248 1.68584 L 2.90791 1.72041 L 2.87666 1.75166 L 2.84541 1.78291 L 2.81416 1.81416 L 2.78291 1.84541 L 2.75166 1.87666 L 2.72041 1.90791 L 2.68916 1.93916 L 2.65791 1.97041 L 2.62666 2.00166 L 2.56416 2.06416 L 2.50166 2.12666 L 2.47041 2.15791 L 2.43916 2.18916 L 2.40791 2.22041 L 2.37666 2.25166 L 2.31416 2.31416 L 2.28125 2.28125 L 2.25 2.25 L 2.21875 2.21875 L 2.1875 2.1875 L 2.15625 2.15625 L 2.125 2.125 L 2.09375 2.09375 L 2.0625 2.0625 L 2.03125 2.03125 L 2 2 L 1.96875 1.96875 L 1.9375 1.9375 L 1.90625 1.90625 L 1.875 1.875 L 1.84375 1.84375 L 1.8125 1.8125 L 1.78125 1.78125 L 1.75 1.75 L 1.71875 1.71875 L 1.68584 1.68584 L 1.74834 1.62334 L 1.77959 1.59209 L 1.81084 1.56084 L 1.84209 1.52959 L 1.87334 1.49834 L 1.93584 1.43584 L 1.99834 1.37334 L 2.02959 1.34209 L 2.06084 1.31084 L 2.09209 1.27959 L 2.12334 1.24834 L 2.15459 1.21709 L 2.18584 1.18584 L 2.21709 1.15459 L 2.24834 1.12334 L 2.27959 1.09209 L 2.31416 1.05752 L 2.25332 0.996682 "
fill="none" stroke="black" stroke-width="0.01"/><path d="M 3.25332 1.99668 L 3.19082 1.93418 L 3.12832 1.87168 L 3.09707 1.84043 L 3.06582 1.80918 L 3.03457 1.77793 L 3.00332 1.74668 L 2.94248 1.68584 "
fill="none" stroke="black" stroke-width="0.01"/><path d="M 1.9681 1.9908e-05 L 1.90623 0.00195432 L 1.84371 0.00586927 L 1.7812 0.0117559 L 1.71868 0.0196322 L 1.65616 0.0295221 L 1.59365 0.0414556 L 1.5331 0.0550278 L 1.50196 0.0630021 L 1.46861 0.0716128 L 1.36006 0.103426 L 1.40957 0.152932 L 1.44082 0.184182 L 1.47207 0.215432 L 1.50332 0.246681 L 1.53457 0.277931 L 1.56582 0.309182 L 1.59707 0.340432 L 1.62832 0.371682 L 1.68584 0.429203 L 1.65127 0.463773 L 1.62002 0.495022 L 1.58877 0.526272 L 1.55752 0.557522 L 1.52627 0.588772 L 1.49502 0.620022 L 1.46377 0.651272 L 1.43252 0.682522 L 1.40127 0.713772 L 1.37002 0.745022 L 1.33877 0.776272 L 1.30752 0.807522 L 1.27627 0.838772 L 1.24502 0.870022 L 1.18252 0.932522 L 1.12002 0.995022 L 1.08877 1.02627 L 1.05752 1.05752 L 1 1 L 0.96875 0.96875 L 0.9375 0.9375 L 0.90625 0.90625 L 0.875 0.875 L 0.8125 0.8125 L 0.75 0.75 L 0.6875 0.6875 L 0.625 0.625 L 0.585591 0.585591 L 0.555024 0.617191 L 0.523355 0.650642 L 0.495439 0.682296 L 0.464195 0.718219 L 0.438125 0.750781 L 0.413515 0.781582 L 0.382778 0.823236 L 0.360447 0.85436 L 0.329055 0.900502 L 0.309017 0.932002 L 0.286189 0.968407 L 0.25883 1.0158 L 0.241535 1.04705 L 0.216902 1.09347 L 0.194411 1.1397 L 0.179839 1.17094 L 0.158683 1.21852 L 0.135084 1.27686 L 0.123429 1.30826 L 0.104188 1.36082 L 0.121682 1.37832 L 0.152932 1.40957 L 0.184182 1.44082 L 0.215432 1.47207 L 0.246682 1.50332 L 0.309182 1.56582 L 0.371682 1.62832 L 0.429204 1.68584 L 0.463771 1.65127 L 0.495022 1.62002 L 0.526272 1.58877 L 0.557522 1.55752 L 0.588772 1.52627 L 0.620022 1.49502 L 0.651272 1.46377 L 0.682522 1.43252 L 0.713772 1.40127 L 0.745022 1.37002 L 0.776272 1.33877 L 0.807522 1.30752 L 0.838772 1.27627 L 0.870022 1.24502 L 0.901272 1.21377 L 0.932522 1.18252 L 0.963772 1.15127 L 0.995022 1.12002 L 1.05752 1.05752 L 1.09375 1.09375 L 1.125 1.125 L 1.15625 1.15625 L 1.1875 1.1875 L 1.21875 1.21875 L 1.25 1.25 L 1.3125 1.3125 L 1.375 1.375 L 1.4375 1.4375 L 1.5 1.5 L 1.53125 1.53125 L 1.5625 1.5625 L 1.59375 1.59375 L 1.625 1.625 L 1.68584 1.68584 L 1.65459 1.71709 L 1.62334 1.74834 L 1.59209 1.77959 L 1.56084 1.81084 L 1.52959 1.84209 L 1.49834 1.87334 L 1.43584 1.93584 L 1.37334 1.99834 L 1.34209 2.02959 L 1.31084 2.06084 L 1.27959 2.09209 L 1.24834 2.12334 L 1.21709 2.15459 L 1.18584 2.18584 L 1.15459 2.21709 L 1.12334 2.24834 L 1.09209 2.27959 L 1.05752 2.31416 L 0.996681 2.25332 L 0.965431 2.22207 L 0.934181 2.19082 L 0.902932 2.15957 L 0.871682 2.12832 L 0.809182 2.06582 L 0.746682 2.00332 L 0.715432 1.97207 L 0.684182 1.94082 L 0.652932 1.90957 L 0.621682 1.87832 L 0.590431 1.84707 L 0.559181 1.81582 L 0.527931 1.78457 L 0.496681 1.75332 L 0.465431 1.72207 L 0.429204 1.68584 L 0.370022 1.74502 L 0.338772 1.77627 L 0.307522 1.80752 L 0.276272 1.83877 L 0.245022 1.87002 L 0.213772 1.90127 L 0.182523 1.93252 L 0.151273 1.96377 L 0.120023 1.99502 L 0.0887725 2.02627 L 0.0575225 2.05752 L 0.00309277 2.11195 L 0.00586927 2.15629 L 0.0117559 2.2188 L 0.0196322 2.28132 L 0.0295221 2.34384 L 0.0414556 2.40635 L 0.0550278 2.4669 L 0.0630021 2.49804 L 0.0716128 2.53139 L 0.0937922 2.60707 L 0.118363 2.63164 L 0.149613 2.66289 L 0.180863 2.69414 L 0.212113 2.72539 L 0.243363 2.75664 L 0.274613 2.78789 L 0.305863 2.81914 L 0.337113 2.85039 L 0.368363 2.88164 L 0.429204 2.94248 L 0.46709 2.90459 L 0.498341 2.87334 L 0.529591 2.84209 L 0.560841 2.81084 L 0.592091 2.77959 L 0.623341 2.74834 L 0.654591 2.71709 L 0.685841 2.68584 L 0.717091 2.65459 L 0.748341 2.62334 L 0.779591 2.59209 L 0.810841 2.56084 L 0.842091 2.52959 L 0.873341 2.49834 L 0.904591 2.46709 L 0.935841 2.43584 L 0.967091 2.40459 L 0.998341 2.37334 L 1.05752 2.31416 L 1.09043 2.34707 L 1.12168 2.37832 L 1.15293 2.40957 L 1.18418 2.44082 L 1.21543 2.47207 L 1.24668 2.50332 L 1.27793 2.53457 L 1.30918 2.56582 L 1.34043 2.59707 L 1.37168 2.62832 L 1.40293 2.65957 L 1.43418 2.69082 L 1.46543 2.72207 L 1.49668 2.75332 L 1.52793 2.78457 L 1.55918 2.81582 L 1.59043 2.84707 L 1.62168 2.87832 L 1.65293 2.90957 L 1.68584 2.94248 L 1.62666 3.00166 L 1.59541 3.03291 L 1.56416 3.06416 L 1.53291 3.09541 L 1.50166 3.12666 L 1.47041 3.15791 L 1.43916 3.18916 L 1.40791 3.22041 L 1.37666 3.25166 L 1.34541 3.28291 L 1.31416 3.31416 L 1.28291 3.34541 L 1.25166 3.37666 L 1.22041 3.40791 L 1.18916 3.43916 L 1.15791 3.47041 L 1.12666 3.50166 L 1.09541 3.53291 L 1.05752 3.5708 L 1.11836 3.63164 L 1.14961 3.66289 L 1.18086 3.69414 L 1.21211 3.72539 L 1.24336 3.75664 L 1.27461 3.78789 L 1.30586 3.81914 L 1.33711 3.85039 L 1.36836 3.88164 L 1.39293 3.90621 L 1.46861 3.92839 L 1.50196 3.937 L 1.5331 3.94497 L 1.59365 3.95854 L 1.65616 3.97048 L 1.71868 3.98037 L 1.7812 3.98824 L 1.84371 3.99413 L 1.88805 3.99691 L 1.94248 3.94248 L 1.97373 3.91123 L 2.00498 3.87998 L 2.03623 3.84873 L 2.06748 3.81748 L 2.09873 3.78623 L 2.12998 3.75498 L 2.16123 3.72373 L 2.19248 3.69248 L 2.22373 3.66123 L 2.25498 3.62998 L 2.31416 3.5708 L 2.27793 3.53457 L 2.24668 3.50332 L 2.21543 3.47207 L 2.18418 3.44082 L 2.15293 3.40957 L 2.12168 3.37832 L 2.09043 3.34707 L 2.05918 3.31582 L 2.02793 3.28457 L 1.99668 3.25332 L 1.93418 3.19082 L 1.87168 3.12832 L 1.84043 3.09707 L 1.80918 3.06582 L 1.77793 3.03457 L 1.74668 3.00332 L 1.68584 2.94248 L 1.72041 2.90791 L 1.75166 2.87666 L 1.78291 2.84541 L 1.81416 2.81416 L 1.84541 2.78291 L 1.87666 2.75166 L 1.90791 2.72041 L 1.93916 2.68916 L 1.97041 2.65791 L 2.00166 2.62666 L 2.06416 2.56416 L 2.12666 2.50166 L 2.15791 2.47041 L 2.18916 2.43916 L 2.22041 2.40791 L 2.25166 2.37666 L 2.28291 2.34541 L 2.31416 2.31416 L 2.375 2.375 L 2.40625 2.40625 L 2.4375 2.4375 L 2.46875 2.46875 L 2.5 2.5 L 2.5625 2.5625 L 2.625 2.625 L 2.6875 2.6875 L 2.75 2.75 L 2.78125 2.78125 L 2.8125 2.8125 L 2.84375 2.84375 L 2.875 2.875 L 2.90625 2.90625 L 2.94248 2.94248 L 2.87998 3.00498 L 2.84873 3.03623 L 2.81748 3.06748 L 2.78623 3.09873 L 2.75498 3.12998 L 2.72373 3.16123 L 2.69248 3.19248 L 2.66123 3.22373 L 2.62998 3.25498 L 2.59873 3.28623 L 2.56748 3.31748 L 2.53623 3.34873 L 2.50498 3.37998 L 2.47373 3.41123 L 2.44248 3.44248 L 2.41123 3.47373 L 2.37998 3.50498 L 2.34873 3.53623 L 2.31416 3.5708 L 2.37168 3.62832 L 2.43418 3.69082 L 2.49668 3.75332 L 2.52793 3.78457 L 2.55918 3.81582 L 2.59043 3.84707 L 2.62168 3.87832 L 2.63918 3.89581 L 2.69174 3.87657 L 2.72314 3.86492 L 2.78148 3.84132 L 2.82906 3.82016 L 2.8603 3.80559 L 2.90653 3.7831 L 2.95295 3.75847 L 2.9842 3.74117 L 3.03159 3.71381 L 3.068 3.69098 L 3.0995 3.67094 L 3.14564 3.63955 L 3.17676 3.61722 L 3.21842 3.58648 L 3.24922 3.56188 L 3.28178 3.5358 L 3.3177 3.50456 L 3.34936 3.47664 L 3.38281 3.44498 L 3.41441 3.41441 L 3.375 3.375 L 3.3125 3.3125 L 3.25 3.25 L 3.1875 3.1875 L 3.125 3.125 L 3.09375 3.09375 L 3.0625 3.0625 L 3.03125 3.03125 L 3 3 L 2.94248 2.94248 L 2.97373 2.91123 L 3.00498 2.87998 L 3.06748 2.81748 L 3.12998 2.75498 L 3.16123 2.72373 L 3.19248 2.69248 L 3.22373 2.66123 L 3.25498 2.62998 L 3.28623 2.59873 L 3.31748 2.56748 L 3.34873 2.53623 L 3.37998 2.50498 L 3.41123 2.47373 L 3.44248 2.44248 L 3.47373 2.41123 L 3.50498 2.37998 L 3.53623 2.34873 L 3.5708 2.31416 L 3.62832 2.37168 L 3.65957 2.40293 L 3.69082 2.43418 L 3.72207 2.46543 L 3.75332 2.49668 L 3.78457 2.52793 L 3.81582 2.55918 L 3.84707 2.59043 L 3.89657 2.63994 L 3.92839 2.53139 L 3.937 2.49804 L 3.94497 2.4669 L 3.95854 2.40635 L 3.97048 2.34384 L 3.98037 2.28132 L 3.98824 2.2188 L 3.99413 2.15629 L 3.99805 2.09377 L 3.99998 2.0319 "
fill="none" stroke="black" stroke-width="0.01"/><path d="M 0.712113 3.22539 L 0.680863 3.19414 L 0.649613 3.16289 L 0.618363 3.13164 L 0.587113 3.10039 L 0.555863 3.06914 L 0.524613 3.03789 L 0.493363 3.00664 L 0.462112 2.97539 L 0.429204 2.94248 L 0.373341 2.99834 L 0.342091 3.02959 L 0.310841 3.06084 L 0.306943 3.06474 L 0.329055 3.0995 L 0.360447 3.14564 L 0.382778 3.17676 L 0.413515 3.21842 L 0.438125 3.24922 L 0.464195 3.28178 L 0.495439 3.3177 L 0.523355 3.34936 L 0.555024 3.38281 L 0.585591 3.41441 L 0.617191 3.44498 L 0.650642 3.47664 L 0.682296 3.50456 L 0.718219 3.5358 L 0.750781 3.56188 L 0.781582 3.58648 L 0.823236 3.61722 L 0.85436 3.63955 L 0.900502 3.67094 L 0.935262 3.69306 L 0.939159 3.68916 L 0.970409 3.65791 L 1.00166 3.62666 L 1.05752 3.5708 L 1.02461 3.53789 L 0.993363 3.50664 L 0.962113 3.47539 L 0.930863 3.44414 L 0.899613 3.41289 L 0.868363 3.38164 L 0.837113 3.35039 L 0.805863 3.31914 L 0.774613 3.28789 L 0.743363 3.25664 Z"
fill="none" stroke="black" stroke-width="0.01"/><path d="M 3.90835 1.39508 L 3.87657 1.30826 L 3.90906 1.39578 L 3.85039 1.33711 Z"
fill="none" stroke="black" stroke-width="0.01"/><path d="M 3.99993 1.88503 L 3.91123 1.97373 L 3.87998 2.00498 L 3.84873 2.03623 L 3.81748 2.06748 L 3.78623 2.09873 L 3.75498 2.12998 L 3.72373 2.16123 L 3.69248 2.19248 L 3.66123 2.22373 L 3.62998 2.25498 L 3.5708 2.31416 L 3.53457 2.27793 L 3.50332 2.24668 L 3.47207 2.21543 L 3.44082 2.18418 L 3.40957 2.15293 L 3.37832 2.12168 L 3.34707 2.09043 L 3.31582 2.05918 L 3.28457 2.02793 L 3.25332 1.99668 "
fill="none" stroke="black" stroke-width="0.01"/>
</svg>