<?xml version="1.0" encoding="UTF-8" standalone="no"?>
<svg xmlns="http://www.w3.org/2000/svg" version="1.1"
 width="4" height="4" id="libfive">
<path d="M 2.73832 1.32532 L 2.70737 1.29263 L 2.67468 1.26168 L 2.64358 1.23425 L 2.6044 1.20288 L 2.57282 1.18022 L 2.53197 1.15243 L 2.4921 1.12941 L 2.46113 1.11228 L 2.40673 1.08581 L 2.36157 1.06754 L 2.33036 1.05596 L 2.28155 1.0399 L 2.21897 1.02374 L 2.15641 1.0118 L 2.09384 1.00392 L 2.0314 1.00001 L 2.00012 1 L 1.99988 1 L 1.9686 1.00001 L 1.90616 1.00392 L 1.84359 1.0118 L 1.78103 1.02374 L 1.71845 1.0399 L 1.66964 1.05596 L 1.63843 1.06754 L 1.59327 1.08581 L 1.53887 1.11228 L 1.5079 1.12941 L 1.46803 1.15243 L 1.42718 1.18022 L 1.3956 1.20288 L 1.35642 1.23425 L 1.32532 1.26168 L 1.29263 1.29263 L 1.26168 1.32532 L 1.23425 1.35642 L 1.20288 1.3956 L 1.18022 1.42718 L 1.15243 1.46803 L 1.12941 1.5079 L 1.11228 1.53887 L 1.08581 1.59327 L 1.06754 1.63843 L 1.05596 1.66964 L 1.0399 1.71845 L 1.02374 1.78103 L 1.0118 1.84359 L 1.00392 1.90616 L 1.00001 1.9686 L 1 1.99988 L 1 2.00012 L 1.00001 2.0314 L 1.00392 2.09384 L 1.0118 2.15641 L 1.02374 2.21897 L 1.0399 2.28155 L 1.05596 2.33036 L 1.06754 2.36157 L 1.08581 2.40673 L 1.11228 2.46113 L 1.12941 2.4921 L 1.15243 2.53197 L 1.18022 2.57282 L 1.20288 2.6044 L 1.23425 2.64358 L 1.26168 2.67468 L 1.29263 2.70737 L 1.32532 2.73832 L 1.35642 2.76575 L 1.3956 2.79712 L 1.42718 2.81978 L 1.46803 2.84757 L 1.5079 2.87059 L 1.53887 2.88772 L 1.59327 2.91419 L 1.63843 2.93246 L 1.66964 2.94404 L 1.71845 2.9601 L 1.78103 2.97626 L 1.84359 2.9882 L 1.90616 2.99608 L 1.9686 2.99999 L 1.99988 3 L 2.00012 3 L 2.0314 2.99999 L 2.09384 2.99608 L 2.15641 2.9882 L 2.21897 2.97626 L 2.28155 2.9601 L 2.33036 2.94404 L 2.36157 2.93246 L 2.40673 2.91419 L 2.46113 2.88772 L 2.4921 2.87059 L 2.53197 2.84757 L 2.57282 2.81978 L 2.6044 2.79712 L 2.64358 2.76575 L 2.67468 2.73832 L 2.70737 2.70737 L 2.73832 2.67468 L 2.76575 2.64358 L 2.79712 2.6044 L 2.81978 2.57282 L 2.84757 2.53197 L 2.87059 2.4921 L 2.88772 2.46113 L 2.91419 2.40673 L 2.93246 2.36157 L 2.94404 2.33036 L 2.9601 2.28155 L 2.97626 2.21897 L 2.9882 2.15641 L 2.99608 2.09384 L 2.99999 2.0314 L 3 2.00012 L 3 1.99988 L 2.99999 1.9686 L 2.99608 1.90616 L 2.9882 1.84359 L 2.97626 1.78103 L 2.9601 1.71845 L 2.94404 1.66964 L 2.93246 1.63843 L 2.91419 1.59327 L 2.88772 1.53887 L 2.87059 1.5079 L 2.84757 1.46803 L 2.81978 1.42718 L 2.79712 1.3956 L 2.76575 1.35642 Z"
fill="none" stroke="black" stroke-width="0.01"/>
</svg>